<svg width="255" height="15" viewBox="0 0 255 15" fill="none" xmlns="http://www.w3.org/2000/svg">
<path d="M118.731 14.7442L119.569 11.9601H124.37L125.208 14.7442H129.47L124.669 0.19873H119.271L114.47 14.7442H118.731ZM120.464 9.00553L121.913 4.20443H122.027L123.476 9.00553H120.464Z" fill="white"/>
<path d="M130.871 14.7442H134.82V9.94303H136.183L138.74 14.7442H143.03L140.075 9.31803C141.624 8.57233 142.547 7.15903 142.547 5.14193C142.547 2.04533 140.381 0.19873 137.149 0.19873H130.871V14.7442ZM134.82 6.87493V3.35213H136.212C137.597 3.35213 138.428 3.89193 138.428 5.14193C138.428 6.38483 137.597 6.87493 136.212 6.87493H134.82Z" fill="white"/>
<path d="M143.833 3.38053H148.208V14.7442H152.1V3.38053H156.475V0.19873H143.833V3.38053Z" fill="white"/>
<path d="M171.391 5H175.382C175.077 2.0809 172.428 0 168.99 0C165.07 0 161.888 2.6988 161.888 7.5C161.888 12.1022 164.772 14.9431 169.019 14.9431C172.826 14.9431 175.553 12.6136 175.553 8.6363V6.6193H169.104V9.4318H171.746C171.711 10.696 170.816 11.5056 169.047 11.5056C167.002 11.5056 165.951 10 165.951 7.4431C165.951 4.9218 167.087 3.4375 169.076 3.4375C170.311 3.4375 171.15 4.0056 171.391 5Z" fill="white"/>
<path d="M180.723 14.7442L181.561 11.9601H186.363L187.201 14.7442H191.462L186.661 0.19873H181.263L176.462 14.7442H180.723ZM182.456 9.00553L183.905 4.20443H184.019L185.468 9.00553H182.456Z" fill="white"/>
<path d="M192.863 14.7442H202.693V11.5624H196.812V0.19873H192.863V14.7442Z" fill="white"/>
<path d="M204.289 14.7442H214.118V11.5624H208.238V0.19873H204.289V14.7442Z" fill="white"/>
<path d="M215.715 14.7442H226.169V11.5624H219.663V9.06243H225.658V5.88053H219.663V3.38053H226.197V0.19873H215.715V14.7442Z" fill="white"/>
<path d="M228.156 14.7442H232.105V9.94303H233.468L236.025 14.7442H240.315L237.36 9.31803C238.909 8.57233 239.832 7.15903 239.832 5.14193C239.832 2.04533 237.666 0.19873 234.434 0.19873H228.156V14.7442ZM232.105 6.87493V3.35213H233.497C234.882 3.35213 235.713 3.89193 235.713 5.14193C235.713 6.38483 234.882 6.87493 233.497 6.87493H232.105Z" fill="white"/>
<path d="M240.235 0.19873L245.576 10.1703V14.7442H249.496V10.1703L254.837 0.19873H250.434L247.593 6.10783H247.479L244.639 0.19873H240.235Z" fill="white"/>
<path d="M109.056 0.19873V14.7441H105.76L100.505 7.10212H100.42V14.7441H96.4707V0.19873H99.823L104.993 7.81234H105.107V0.19873H109.056Z" fill="white"/>
<path d="M84.0303 14.7441V0.19873H94.5132V3.38054H87.9791V5.88053H93.9734V9.06234H87.9791V11.5623H94.4848V14.7441H84.0303Z" fill="white"/>
<path d="M69.9023 3.38054V0.19873H82.5443V3.38054H78.1694V14.7441H74.2773V3.38054H69.9023Z" fill="white"/>
<path d="M57.8584 14.7441V0.19873H68.3413V3.38054H61.8073V5.88053H67.8016V9.06234H61.8073V11.5623H68.3129V14.7441H57.8584Z" fill="white"/>
<path d="M46.4321 14.7441V0.19873H50.381V11.5623H56.2617V14.7441H46.4321Z" fill="white"/>
<path d="M33.3071 14.7441V0.19873H39.5855C40.6651 0.19873 41.6097 0.411798 42.4193 0.837934C43.229 1.26407 43.8587 1.86302 44.3085 2.6348C44.7583 3.40658 44.9832 4.30857 44.9832 5.34076C44.9832 6.38242 44.7512 7.28441 44.2872 8.04672C43.8279 8.80903 43.1816 9.39614 42.3483 9.80808C41.5197 10.22 40.5514 10.426 39.4435 10.426H35.6935V7.3578H38.648C39.112 7.3578 39.5074 7.27731 39.8341 7.11632C40.1655 6.9506 40.4189 6.71623 40.594 6.4132C40.774 6.11017 40.8639 5.75269 40.8639 5.34076C40.8639 4.9241 40.774 4.56898 40.594 4.27542C40.4189 3.97713 40.1655 3.74986 39.8341 3.59361C39.5074 3.43262 39.112 3.35213 38.648 3.35213H37.256V14.7441H33.3071Z" fill="white"/>
<path d="M31.4362 0.19873V14.7441H27.4873V0.19873H31.4362Z" fill="white"/>
<path d="M14.1279 14.7441V0.19873H20.4063C21.4859 0.19873 22.4305 0.395226 23.2401 0.788217C24.0498 1.18121 24.6795 1.74702 25.1293 2.48566C25.5791 3.22429 25.804 4.1097 25.804 5.1419C25.804 6.18356 25.572 7.06187 25.108 7.77683C24.6487 8.49179 24.0024 9.03156 23.1691 9.39615C22.3405 9.76073 21.3722 9.94302 20.2643 9.94302H16.5143V6.87485H19.4688C19.9328 6.87485 20.3282 6.81803 20.6549 6.70439C20.9863 6.58602 21.2397 6.399 21.4148 6.14331C21.5948 5.88763 21.6847 5.55383 21.6847 5.1419C21.6847 4.72523 21.5948 4.38669 21.4148 4.12628C21.2397 3.86113 20.9863 3.667 20.6549 3.54389C20.3282 3.41605 19.9328 3.35213 19.4688 3.35213H18.0768V14.7441H14.1279ZM22.6506 8.06802L26.287 14.7441H21.9972L18.4461 8.06802H22.6506Z" fill="white"/>
<path d="M0 3.38054V0.19873H12.642V3.38054H8.26702V14.7441H4.37499V3.38054H0Z" fill="white"/>
</svg>
